<?xml version="1.0" encoding="UTF-8"?>
<svg width="512" height="512" viewBox="0 0 512 512" fill="none" xmlns="http://www.w3.org/2000/svg">
  <!-- Background with gradient -->
  <defs>
    <linearGradient id="bgGrad" x1="0%" y1="0%" x2="100%" y2="100%">
      <stop offset="0%" style="stop-color:#3B82F6;stop-opacity:1" />
      <stop offset="100%" style="stop-color:#8B5CF6;stop-opacity:1" />
    </linearGradient>
    <linearGradient id="sunGrad" x1="0%" y1="0%" x2="100%" y2="100%">
      <stop offset="0%" style="stop-color:#FCD34D;stop-opacity:1" />
      <stop offset="100%" style="stop-color:#F59E0B;stop-opacity:1" />
    </linearGradient>
  </defs>
  
  <!-- Background -->
  <rect width="512" height="512" rx="90" fill="url(#bgGrad)"/>
  
  <!-- Sun -->
  <circle cx="180" cy="200" r="70" fill="url(#sunGrad)"/>
  
  <!-- Sun rays -->
  <g stroke="#FCD34D" stroke-width="6" stroke-linecap="round">
    <line x1="180" y1="80" x2="180" y2="110"/>
    <line x1="180" y1="290" x2="180" y2="320"/>
    <line x1="60" y1="200" x2="90" y2="200"/>
    <line x1="270" y1="200" x2="300" y2="200"/>
    <line x1="105" y1="125" x2="125" y2="145"/>
    <line x1="235" y1="255" x2="255" y2="275"/>
    <line x1="255" y1="125" x2="235" y2="145"/>
    <line x1="125" y1="255" x2="105" y2="275"/>
  </g>
  
  <!-- Cloud -->
  <g fill="#FFFFFF" opacity="0.95">
    <ellipse cx="340" cy="300" rx="80" ry="55"/>
    <ellipse cx="290" cy="310" rx="65" ry="45"/>
    <ellipse cx="390" cy="310" rx="55" ry="40"/>
    <ellipse cx="340" cy="340" rx="70" ry="35"/>
  </g>
  
  <!-- Small accent elements -->
  <g fill="#FFFFFF" opacity="0.4">
    <circle cx="150" cy="170" r="6"/>
    <circle cx="210" cy="180" r="4"/>
    <circle cx="360" cy="280" r="4"/>
  </g>
</svg>